<?xml version="1.0" standalone="no"?>
<!DOCTYPE svg PUBLIC "-//W3C//DTD SVG 20010904//EN"
 "http://www.w3.org/TR/2001/REC-SVG-20010904/DTD/svg10.dtd">
<svg version="1.0" xmlns="http://www.w3.org/2000/svg"
 width="1032.000000pt" height="1032.000000pt" viewBox="0 0 1032.000000 1032.000000"
 preserveAspectRatio="xMidYMid meet">
<metadata>
Created by potrace 1.11, written by Peter Selinger 2001-2013
</metadata>
<g transform="translate(0.000000,1032.000000) scale(0.100000,-0.100000)"
fill="#000000" stroke="none">
<path d="M4210 10285 c-60 -96 -220 -193 -336 -203 -55 -4 -68 -10 -116 -48
-29 -24 -68 -49 -87 -55 -25 -9 -134 -9 -420 0 -514 15 -504 14 -558 98 l-35
56 -222 -7 c-121 -3 -687 -16 -1256 -27 -569 -12 -1037 -22 -1038 -24 -11 -10
-53 -201 -58 -260 -5 -57 -1 -89 22 -175 l28 -105 3 -587 c5 -632 5 -626 -52
-943 -29 -162 -51 -545 -41 -738 5 -116 6 -121 54 -225 56 -122 73 -181 102
-372 12 -74 28 -166 36 -205 41 -191 41 -177 4 -251 -30 -61 -35 -85 -57 -273
l-23 -206 110 -105 110 -105 0 -183 0 -183 -52 -59 c-28 -32 -87 -85 -130
-117 l-80 -58 6 -85 c3 -47 8 -254 11 -460 3 -206 8 -418 11 -471 l6 -97 129
-93 c124 -89 129 -94 129 -128 0 -20 -12 -233 -26 -475 l-26 -438 -67 -63
c-113 -107 -151 -204 -151 -385 0 -58 9 -350 21 -650 l20 -545 -31 -239 c-16
-132 -27 -243 -23 -247 8 -7 299 -76 423 -101 79 -15 1240 -13 1440 3 117 9
409 42 491 55 l37 5 6 -55 7 -56 72 6 c345 27 384 34 430 73 18 15 40 30 49
34 34 12 304 -36 728 -130 l172 -37 22 25 c23 27 79 69 93 69 4 0 20 -19 34
-43 29 -47 201 -264 270 -340 l44 -48 129 121 c70 67 133 119 140 117 95 -40
431 -167 439 -167 7 0 39 23 72 50 33 28 63 49 66 48 4 -2 25 -27 48 -55 54
-69 92 -88 167 -84 11 1 54 30 95 66 97 85 168 122 255 134 38 5 456 22 929
37 l860 28 68 60 c37 34 72 62 76 64 5 2 40 -17 79 -42 39 -25 83 -51 99 -58
16 -6 113 -14 228 -18 192 -7 203 -9 283 -39 106 -40 237 -55 402 -47 112 6
131 10 182 36 37 20 90 35 155 46 54 8 99 17 102 19 12 13 -31 77 -83 127
l-61 57 540 -110 c297 -60 541 -109 541 -109 1 0 2 807 2 1792 0 986 3 1928 7
2092 l8 299 -94 -7 c-52 -4 -118 -9 -147 -13 -49 -5 -54 -4 -50 13 2 10 25 35
53 56 90 68 89 62 93 467 4 359 -10 745 -28 813 -14 48 -85 154 -194 287 l-84
105 19 48 c33 84 55 121 118 195 l61 73 -10 45 c-5 24 -22 74 -37 110 -16 40
-23 69 -17 74 5 5 75 30 155 55 l146 46 6 37 c3 21 9 268 13 548 l7 510 -68
665 -68 665 51 166 52 166 0 154 0 154 -128 77 c-70 42 -143 81 -162 86 -19 6
-132 13 -250 16 -232 6 -378 22 -507 55 -138 35 -140 35 -249 -71 -52 -50 -96
-89 -98 -87 -2 2 -26 51 -52 109 -26 58 -49 106 -50 108 -1 2 -190 18 -420 37
-1202 97 -1407 104 -1483 47 -36 -27 -56 -72 -98 -220 -36 -129 -38 -132 -68
-137 -85 -14 -430 -44 -436 -37 -3 4 -19 49 -34 100 l-28 92 -186 0 c-102 0
-196 3 -209 7 -23 5 -21 8 31 62 31 32 66 81 80 114 l26 57 -849 0 -848 0 -22
-35z m1719 -1436 l47 -67 30 22 c16 11 36 29 44 39 14 16 25 15 219 -28 229
-51 417 -85 466 -85 19 0 39 8 50 20 9 10 31 24 49 29 36 12 181 29 276 32
l65 3 8 -40 9 -39 181 23 c164 21 236 24 714 29 378 4 552 2 600 -6 89 -15
326 -72 335 -80 4 -3 -4 -88 -17 -189 -23 -183 -23 -185 -9 -555 7 -205 16
-415 19 -467 12 -173 -18 -272 -112 -370 l-59 -61 -17 -327 c-10 -180 -20
-341 -22 -357 -5 -29 1 -35 99 -107 l104 -76 6 -338 c3 -187 8 -378 11 -426
l5 -86 -68 -51 c-37 -28 -82 -68 -99 -90 l-33 -40 0 -138 0 -138 84 -85 84
-85 -18 -156 c-13 -111 -24 -169 -39 -197 -25 -48 -27 -102 -7 -181 8 -31 22
-105 31 -166 22 -150 40 -215 82 -303 35 -72 37 -80 41 -206 6 -182 -13 -425
-45 -591 l-28 -140 0 -480 c0 -464 1 -483 23 -568 27 -108 27 -137 -1 -252
l-22 -90 -55 -3 c-30 -1 -464 -11 -965 -22 l-910 -19 -15 21 c-44 61 -66 76
-121 82 -89 11 -601 22 -637 15 -18 -4 -52 -23 -76 -43 -33 -26 -54 -36 -80
-36 -78 0 -206 -71 -254 -141 l-27 -38 -653 -1 -652 0 21 42 c12 24 40 63 63
88 l41 45 -162 3 -163 2 -21 75 c-21 70 -24 75 -49 75 -53 0 -325 -31 -331
-38 -4 -4 -18 -47 -32 -97 -34 -122 -41 -136 -72 -165 -25 -24 -34 -25 -164
-28 -78 -2 -261 5 -428 17 -555 41 -864 68 -871 77 -4 5 -23 43 -42 84 -19 41
-36 77 -37 79 -2 2 -36 -28 -77 -67 -84 -82 -84 -82 -208 -53 -102 24 -276 41
-426 41 -128 0 -141 4 -275 83 l-88 52 6 130 c5 110 11 148 42 246 l36 117
-52 503 c-56 545 -58 602 -44 1110 l6 246 121 40 c67 22 120 44 119 49 -1 5
-15 44 -29 86 l-27 77 48 58 c44 55 85 123 99 168 5 16 -14 47 -80 130 -138
176 -135 164 -144 503 -4 158 -5 361 -1 451 l6 164 53 47 c49 44 67 74 40 65
-7 -2 -56 -6 -108 -10 l-95 -6 0 1606 c0 883 3 1605 6 1605 4 0 185 -36 403
-80 218 -44 401 -80 407 -80 7 0 -10 21 -38 48 -27 26 -52 57 -55 69 -5 20 0
22 74 33 46 6 99 22 126 36 46 25 51 25 212 21 149 -3 172 -7 240 -31 67 -25
90 -28 220 -30 155 -3 166 -6 257 -67 l41 -29 55 50 55 51 701 23 c698 24 700
24 753 48 29 14 76 45 103 70 28 25 61 51 74 57 40 22 85 5 134 -49 25 -28 48
-50 52 -50 4 0 27 18 52 39 36 32 49 38 66 32 12 -5 87 -34 165 -65 79 -31
151 -56 159 -56 8 0 57 41 109 91 l95 90 86 -103 c47 -57 106 -133 132 -169z"/>
<path d="M3614 7693 c-263 -308 -353 -440 -489 -720 -41 -84 -86 -170 -99
-192 l-25 -39 356 -399 c196 -219 431 -483 523 -588 91 -104 253 -287 360
-405 106 -118 250 -280 319 -359 69 -79 412 -467 762 -861 350 -395 662 -749
693 -788 60 -74 95 -101 157 -121 35 -11 37 -15 64 -107 39 -130 91 -211 302
-460 133 -157 158 -179 241 -204 88 -26 144 -25 218 1 44 16 92 23 192 26 72
3 132 10 132 15 0 16 -31 70 -113 198 -44 69 -125 211 -180 315 -55 105 -118
216 -140 248 -21 31 -92 162 -156 290 -65 127 -156 302 -203 387 -86 157 -328
631 -328 643 0 12 -289 557 -365 687 -40 69 -197 328 -350 575 -276 447 -278
450 -281 510 -1 44 -12 83 -39 145 -41 91 -150 298 -235 445 -29 50 -113 207
-188 350 -74 143 -154 291 -176 329 l-41 69 -155 43 c-134 38 -581 154 -592
154 -2 0 -76 -84 -164 -187z m414 -278 c21 -9 45 -28 54 -43 9 -16 65 -95 123
-178 238 -333 550 -813 538 -825 -5 -4 -102 4 -218 17 -267 30 -429 38 -530
26 l-80 -10 -73 75 c-90 92 -155 179 -177 237 l-17 44 168 336 c93 185 170
336 171 336 2 0 20 -7 41 -15z"/>
</g>
</svg>
